<svg version="1.1" id="Layer_1" xmlns="http://www.w3.org/2000/svg" xmlns:xlink="http://www.w3.org/1999/xlink" x="0px" y="0px"
	 width="100%" viewBox="0 0 1024 1024" enable-background="new 0 0 1024 1024" xml:space="preserve">
<path fill="#202835" opacity="1.000000" stroke="none" 
	d="
M566.000000,1025.000000 
	C377.333344,1025.000000 189.166672,1025.000000 1.000000,1025.000000 
	C1.000000,683.666687 1.000000,342.333344 1.000000,1.000000 
	C342.333344,1.000000 683.666687,1.000000 1025.000000,1.000000 
	C1025.000000,342.333344 1025.000000,683.666687 1025.000000,1025.000000 
	C872.166687,1025.000000 719.333313,1025.000000 566.000000,1025.000000 
M829.226440,777.638000 
	C829.455811,777.342712 829.685181,777.047485 829.891296,776.934082 
	C829.891296,776.934082 829.710754,776.902283 830.208008,776.612976 
	C830.428833,776.304443 830.649719,775.995850 830.815735,775.877747 
	C830.815735,775.877747 830.629639,775.809387 831.300171,775.623169 
	C831.835999,774.692810 832.371887,773.762451 832.911438,772.913574 
	C832.911438,772.913574 832.830139,772.908081 833.550415,772.855225 
	C834.364441,771.566040 835.178467,770.276855 836.000000,769.000000 
	C836.000000,769.000000 835.989197,768.992920 836.713684,768.885498 
	C837.699951,767.472778 838.686218,766.060120 839.833618,764.770691 
	C839.833618,764.770691 839.702332,764.925232 840.224731,764.582275 
	C840.474792,764.026428 840.724854,763.470642 841.047546,762.459595 
	C841.185791,762.149902 841.423035,761.973083 842.442078,761.842773 
	C843.206055,760.787903 843.970032,759.733093 844.769592,758.805542 
	C844.769592,758.805542 844.638000,758.819275 845.194580,758.512146 
	C845.427368,757.943726 845.660156,757.375366 845.892517,756.902466 
	C845.892517,756.902466 845.797791,756.891418 846.499939,756.816101 
	C847.298523,755.482910 848.097107,754.149780 848.899048,752.905640 
	C848.899048,752.905640 848.810242,752.898865 849.512146,752.799622 
	C849.995911,751.826172 850.479614,750.852661 851.042725,749.439697 
	C851.171082,749.135864 851.398743,748.962402 852.416321,748.814209 
	C852.788025,748.081726 853.159668,747.349243 853.612854,746.638916 
	C853.612854,746.638916 853.560547,746.705261 854.267456,746.572998 
	C854.720520,745.593811 855.173645,744.614685 855.785217,743.740662 
	C855.785217,743.740662 855.669861,743.891785 856.217529,743.553528 
	C856.443176,742.974121 856.668762,742.394775 856.895813,741.904541 
	C856.895813,741.904541 856.807129,741.895447 857.508362,741.800110 
	C857.982605,740.824524 858.456848,739.848999 858.947815,738.944641 
	C858.947815,738.944641 858.874817,738.940369 859.541748,738.813660 
	C859.862732,738.084351 860.183777,737.355042 860.446838,736.561157 
	C860.446838,736.561157 860.482788,736.482178 861.241211,736.592651 
	C861.811401,735.365295 862.381653,734.137939 862.988281,732.971252 
	C862.988281,732.971252 862.918396,732.959717 863.596313,732.816223 
	C864.044556,731.839417 864.492798,730.862549 864.964905,729.953674 
	C864.964905,729.953674 864.892944,729.949707 865.581055,729.812256 
	C866.023071,728.821777 866.465088,727.831299 866.915100,726.918884 
	C866.915100,726.918884 866.836548,726.918152 867.529114,726.826538 
	C869.642151,723.151367 871.755188,719.476257 873.921082,715.940430 
	C873.921082,715.940430 873.779419,715.986511 874.279968,715.608826 
	C874.505554,715.038391 874.731140,714.467957 874.977905,713.964111 
	C874.977905,713.964111 874.908386,713.956543 875.607300,713.826721 
	C876.385254,712.180786 877.163269,710.534851 877.967346,708.956909 
	C877.967346,708.956909 877.895081,708.947571 878.598816,708.822754 
	C879.365479,707.158752 880.132141,705.494690 880.940613,703.955444 
	C880.940613,703.955444 880.814209,703.992126 881.305237,703.603271 
	C881.518982,703.027710 881.732727,702.452148 881.971008,701.971191 
	C881.971008,701.971191 881.875793,701.992920 882.334473,701.603638 
	C882.547668,701.049377 882.760803,700.495178 883.009155,699.981812 
	C883.009155,699.981812 882.955505,699.978027 883.629883,699.832642 
	C884.676086,698.383240 885.951355,697.046570 886.729614,695.465271 
	C890.468750,687.867493 894.375854,680.330994 897.657898,672.534607 
	C903.073914,659.669250 908.635986,646.814453 913.043884,633.591064 
	C916.856018,622.154968 919.248657,610.236572 922.080322,598.485901 
	C924.100281,590.103760 926.195618,581.708252 927.552246,573.206177 
	C929.082825,563.614502 929.884521,553.902588 930.815979,544.225037 
	C930.912109,543.226624 929.734375,542.105591 928.979797,540.223328 
	C929.225281,537.650818 929.470764,535.078247 930.213318,531.746460 
	C930.479065,529.797546 931.024292,527.840515 930.967590,525.901062 
	C930.367798,505.397308 929.926392,484.883453 928.888367,464.400421 
	C928.415833,455.075165 927.114136,445.735809 925.369873,436.558472 
	C924.664124,432.845367 921.772705,429.547699 919.949097,426.058289 
	C919.949097,426.058289 919.930054,426.129028 919.926453,425.408630 
	C919.230835,424.622681 918.535278,423.836761 917.262695,422.733368 
	C913.629883,420.221497 910.262085,416.141388 906.317444,415.474762 
	C890.935303,412.875336 875.570068,412.245361 862.607910,425.055511 
	C861.393066,426.740021 859.517883,428.268036 859.075256,430.135529 
	C856.913818,439.255402 857.351257,448.287750 861.038086,456.983215 
	C861.038086,456.983215 861.066772,456.896881 861.012634,457.792053 
	C862.002319,466.833771 863.405823,475.853699 863.884094,484.922394 
	C864.591431,498.331360 864.618958,511.775665 865.008118,525.202881 
	C865.044739,526.465942 865.596619,527.714111 866.029846,529.870239 
	C864.817688,558.779114 860.451355,587.208008 851.120178,614.611389 
	C821.982666,700.181091 767.991821,765.381104 689.321045,809.947998 
	C669.920593,820.938354 649.394348,829.500366 627.636780,836.141785 
	C625.005371,824.351746 622.446899,812.884521 619.886414,801.417725 
	C618.409180,794.802002 614.911743,789.775574 608.300659,787.548828 
	C603.713684,786.003784 599.466492,785.707397 595.656860,790.093506 
	C568.899780,820.899475 541.936584,851.526306 515.150024,882.306824 
	C509.266846,889.067261 509.330963,898.076599 515.811584,904.291626 
	C519.273315,907.611511 523.955078,910.037659 528.502441,911.782532 
	C549.604431,919.879700 570.852173,927.597046 592.302429,936.047485 
	C592.935730,936.548767 593.493286,937.259338 594.213623,937.520325 
	C606.961792,942.139709 619.859558,946.381226 632.434570,951.427979 
	C638.041748,953.678345 642.307251,950.909851 647.013367,949.534363 
	C647.939453,949.263550 648.344238,947.209595 648.999268,946.003357 
	C648.999268,946.003357 648.975281,945.988892 649.596497,945.812683 
	C650.032654,945.146790 650.468811,944.480896 650.905457,943.911255 
	C650.905457,943.911255 650.809631,943.902161 651.529297,943.799866 
	C655.686523,939.560059 656.014404,934.588623 654.549622,929.137024 
	C652.222778,920.476746 650.121582,911.755676 647.778564,903.099915 
	C647.156738,900.802917 647.222961,899.343201 649.847839,898.555969 
	C656.998230,896.411438 664.164246,894.286682 671.190308,891.779114 
	C673.320557,891.018860 675.014343,889.035706 677.417175,887.148926 
	C688.726685,881.910950 700.225952,877.043152 711.308533,871.362488 
	C739.444031,856.940979 764.875732,838.499268 789.510559,817.885986 
	C789.976013,817.491638 790.441528,817.097351 790.718994,816.825134 
	C790.718994,816.825134 790.603638,816.632874 791.349365,816.741089 
	C792.872314,815.064819 794.395203,813.388489 796.206848,811.135925 
	C798.454529,809.087036 800.702271,807.038147 803.323425,804.678833 
	C803.566406,804.463806 803.789978,804.230164 804.002441,804.002441 
	C804.002441,804.002441 803.977844,803.994080 804.341614,803.681580 
	C804.576904,803.464172 804.794556,803.230408 805.002441,803.002441 
	C805.002441,803.002441 804.980286,802.994690 805.343140,802.681213 
	C805.577576,802.463074 805.795227,802.229309 806.242310,801.416626 
	C807.152405,800.607788 808.062439,799.798950 809.580688,798.845642 
	C810.051636,798.225891 810.522583,797.606140 811.235107,796.429810 
	C812.107788,795.607910 812.980469,794.786011 814.288879,793.663025 
	C814.526855,793.402588 814.764832,793.142090 815.005066,793.003052 
	C815.005066,793.003052 814.883667,793.005859 815.296387,792.663208 
	C815.513977,792.381531 815.731506,792.099792 816.111572,791.304199 
	C816.646179,790.841614 817.180786,790.379028 818.432861,789.874756 
	C820.208069,787.804016 821.983276,785.733276 823.803955,783.817200 
	C823.803955,783.817200 823.645020,783.843506 824.193176,783.553955 
	C824.449707,783.010681 824.706299,782.467468 824.987366,781.985474 
	C824.987366,781.985474 824.921509,781.982605 825.338806,781.668884 
	C825.558289,781.399170 825.777771,781.129517 825.992859,780.999390 
	C825.992859,780.999390 825.853271,780.994324 826.295288,780.676270 
	C826.529236,780.400330 826.763184,780.124390 826.986938,780.001709 
	C826.986938,780.001709 826.833679,779.991089 827.283813,779.672363 
	C827.516296,779.390625 827.748840,779.108948 827.954895,778.999573 
	C827.954895,778.999573 827.782898,778.971069 828.255310,778.658997 
	C828.486023,778.364075 828.716675,778.069092 828.938721,777.960938 
	C828.938721,777.960938 828.752319,777.946960 829.226440,777.638000 
M269.199280,631.576294 
	C269.573181,632.032776 269.947113,632.489258 270.848236,633.316833 
	C274.040009,635.937195 276.971344,638.984192 280.461853,641.115173 
	C354.359711,686.230286 428.347687,731.197937 502.229248,776.339783 
	C510.130432,781.167480 517.275635,781.083130 525.063477,776.244873 
	C552.076660,759.462952 579.198853,742.855591 606.338928,726.278809 
	C653.372681,697.551270 700.481995,668.947083 747.444397,640.103455 
	C750.789062,638.049133 753.192627,634.462524 756.602783,631.125305 
	C756.826477,630.431580 757.050171,629.737793 757.702087,628.616699 
	C757.893250,628.044434 758.084473,627.472229 758.945740,626.567932 
	C759.292542,625.016235 759.941833,623.464661 759.942871,621.912720 
	C759.995300,539.723999 760.003479,457.535217 759.925537,375.346527 
	C759.923889,373.598114 758.864197,371.850647 758.060303,369.560852 
	C757.864624,369.018890 757.668945,368.476959 757.267700,367.308563 
	C757.097168,366.904175 756.926575,366.499756 756.593628,365.442505 
	C753.307068,362.260040 750.496704,358.263794 746.661255,356.019348 
	C701.735291,329.729279 656.671631,303.674072 611.609558,277.617035 
	C586.424500,263.053802 561.174622,248.602768 535.510986,233.741104 
	C535.005920,233.498123 534.500793,233.255142 533.997131,232.996170 
	C533.997131,232.996170 533.981750,233.006088 533.724365,232.716522 
	C533.149963,232.443359 532.575562,232.170181 532.023865,231.979950 
	C532.023865,231.979950 532.106201,231.955185 531.687134,231.450745 
	C528.545959,229.646942 525.365356,227.907776 522.272583,226.024567 
	C517.323975,223.011383 512.251038,222.255829 506.139069,225.028152 
	C505.886200,225.087479 505.633331,225.146805 505.193634,224.813812 
	C505.397614,224.844238 505.601562,224.874664 505.805573,224.905106 
	C505.706787,225.012344 505.608002,225.119568 505.208527,225.547333 
	C505.208527,225.547333 505.014130,225.941483 504.447357,226.077682 
	C502.919434,227.031204 501.391479,227.984726 499.973022,228.970871 
	C499.973022,228.970871 500.002899,228.860626 499.458496,228.969727 
	C497.259125,230.291931 495.059784,231.614120 492.972534,232.969452 
	C492.972534,232.969452 493.002869,232.856537 492.600372,232.910919 
	C492.051575,233.268356 491.502747,233.625778 490.988770,234.010895 
	C490.988770,234.010895 490.986633,233.966492 490.332855,234.139740 
	C488.848419,235.075912 487.363983,236.012070 485.974030,236.976288 
	C485.974030,236.976288 485.999664,236.881104 485.602722,236.933762 
	C485.060822,237.286438 484.518890,237.639099 483.996124,238.005371 
	C483.996124,238.005371 483.993683,237.983566 483.336792,238.153549 
	C481.856140,239.087692 480.375488,240.021820 478.973297,240.978561 
	C478.973297,240.978561 478.993622,240.899521 478.604858,240.956253 
	C478.072693,241.305069 477.540527,241.653870 477.000000,241.999390 
	C477.000000,241.999390 477.001984,242.005783 476.378143,242.164490 
	C475.495361,242.755249 474.612579,243.346008 473.056213,244.056213 
	C408.269867,281.207214 343.492889,318.374603 278.680237,355.479614 
	C273.172699,358.632660 269.509125,363.048401 267.062225,369.417114 
	C266.718323,370.970428 266.074463,372.523590 266.073578,374.077118 
	C266.026825,456.368988 266.014557,538.660889 266.125702,620.952637 
	C266.129272,623.598328 267.454987,626.242249 268.220367,629.479980 
	C268.490143,629.982910 268.759949,630.485779 269.199280,631.576294 
M97.748924,472.264526 
	C94.254997,488.064880 94.742622,504.065277 95.369743,520.070435 
	C95.381081,520.359802 95.687820,520.637695 95.962219,521.812378 
	C95.995636,524.201538 96.029060,526.590637 95.598923,529.554077 
	C96.005898,535.004089 96.412880,540.454163 97.091629,546.540588 
	C97.361298,547.384216 97.630966,548.227844 97.469398,549.627075 
	C97.637184,551.406616 97.804970,553.186218 97.989609,555.627258 
	C98.002747,556.068176 98.015877,556.509033 98.017288,557.862183 
	C98.662086,562.226013 99.306885,566.589783 99.995766,571.445923 
	C99.995766,571.445923 100.037308,571.938538 100.017242,572.699036 
	C100.321327,574.113831 100.625404,575.528625 100.975769,577.453613 
	C100.992546,577.623596 101.009315,577.793518 101.014938,578.721252 
	C101.320625,580.129761 101.626312,581.538208 101.978188,583.454407 
	C101.996033,583.623413 102.013885,583.792358 102.016907,584.791748 
	C102.651054,587.508301 103.285202,590.224854 103.993340,593.430725 
	C103.993340,593.430725 104.035713,593.923767 104.024506,594.697021 
	C104.520493,595.782166 105.016479,596.867249 105.777237,598.435486 
	C105.824554,598.980042 105.871872,599.524658 105.476379,600.629517 
	C106.723892,605.229919 107.971413,609.830383 109.746574,614.874634 
	C117.961723,643.063232 127.710213,670.678467 141.796295,696.533020 
	C198.646042,800.878906 284.990692,868.695984 398.352783,902.619873 
	C410.526733,906.263000 423.327179,908.304504 435.989960,909.660156 
	C445.446716,910.672607 453.410706,904.154358 456.384308,895.065552 
	C458.555176,888.430298 460.466919,881.676880 461.950226,874.857849 
	C464.315430,863.984558 458.718658,854.452148 448.145630,850.937012 
	C444.367706,849.681030 440.424500,848.907043 436.536652,847.999207 
	C333.200256,823.869202 255.368027,765.558838 202.930222,673.396545 
	C186.329269,644.219421 175.147522,612.984131 169.496994,579.473022 
	C169.143021,578.666260 168.789032,577.859558 168.202621,576.559143 
	C168.167328,576.018982 168.132034,575.478760 168.543930,574.344299 
	C167.827332,571.258301 167.110733,568.172302 166.223877,564.494690 
	C166.223129,564.289429 166.222366,564.084229 166.605148,563.274292 
	C166.148148,561.205566 165.691162,559.136841 165.064743,556.368896 
	C165.073318,555.890625 165.081894,555.412415 165.549667,554.297729 
	C165.661896,552.494995 165.967438,550.680115 165.855804,548.891357 
	C164.949966,534.376282 163.984222,519.864685 162.982101,505.355865 
	C162.859741,503.584290 162.414352,501.835022 162.016220,499.368286 
	C162.060913,498.895538 162.105606,498.422760 162.847122,497.656403 
	C162.980484,493.126740 163.113831,488.597046 163.177597,483.242401 
	C164.104919,477.565918 165.032227,471.889435 166.014221,465.878265 
	C175.911163,469.184601 185.001450,472.386566 194.209122,475.205048 
	C197.300018,476.151123 200.827728,476.922455 203.917892,476.390839 
	C214.430786,474.582245 219.607956,464.948975 215.823730,454.312988 
	C210.749496,440.051178 205.347961,425.904755 199.997147,411.742737 
	C192.469696,391.819763 184.962036,371.888153 177.246902,352.037628 
	C172.615982,340.122589 160.766479,336.012329 151.012100,343.279053 
	C120.838432,365.757538 90.793488,388.412903 60.987911,411.375153 
	C57.958801,413.708771 55.753811,418.403809 55.138611,422.313354 
	C53.808105,430.768677 58.568550,436.729950 67.704277,439.441376 
	C79.321693,442.889404 91.009377,446.100708 102.932144,449.489471 
	C101.317886,457.029510 99.764404,464.285706 97.748924,472.264526 
M888.925720,232.134079 
	C889.421936,224.700592 887.064819,218.622192 880.179016,215.091400 
	C873.113525,211.468475 867.195312,213.982101 861.496765,218.722473 
	C851.817810,226.774063 841.872925,234.505859 832.153992,242.280609 
	C774.023682,166.148544 698.305359,118.156113 605.738220,95.137474 
	C600.963257,93.755440 596.229858,92.193199 591.393555,91.076950 
	C589.358521,90.607239 587.105896,91.079674 584.294067,91.148430 
	C583.862488,91.075302 583.430847,91.002167 582.791016,90.305679 
	C581.511841,90.244064 580.232727,90.182449 578.295044,90.164536 
	C577.863098,90.086388 577.431213,90.008240 576.725708,89.244484 
	C572.813232,88.840614 568.900757,88.436752 564.321777,88.110573 
	C563.880859,88.044571 563.440002,87.978569 562.705750,87.215668 
	C557.128662,86.833633 551.551575,86.451599 545.149353,86.186630 
	C543.765930,86.095634 542.382446,86.004639 540.693298,85.205048 
	C536.455750,85.154678 532.218201,85.104309 527.052551,85.174728 
	C520.367065,85.110497 513.681641,85.046265 506.319916,84.505913 
	C499.547333,84.417900 492.758484,84.016541 486.008575,84.366234 
	C482.305542,84.558075 478.668152,86.016579 474.269592,87.060799 
	C473.523438,87.066589 472.777252,87.072388 471.411377,86.582161 
	C466.941254,87.360458 462.471130,88.138756 457.351044,89.069687 
	C456.907593,89.064148 456.464111,89.058609 455.490234,88.597122 
	C453.993744,89.040932 452.497284,89.484734 450.359772,90.081230 
	C449.921967,90.091904 449.484131,90.102577 448.459198,89.613190 
	C443.639862,90.707588 438.820557,91.801987 433.230804,93.112289 
	C432.267181,93.371468 431.313232,93.675865 430.338593,93.883362 
	C354.137726,110.106010 287.552399,144.531876 231.534348,198.936996 
	C212.221161,217.694107 195.265060,238.416565 180.667862,261.022217 
	C172.526123,273.630768 174.955170,285.740234 187.078812,294.610535 
	C192.177032,298.340698 197.352829,302.015991 202.776672,305.239502 
	C214.774597,312.370056 226.205399,309.801941 234.049438,298.357391 
	C249.941483,275.170837 267.870728,253.734299 289.302094,235.481384 
	C344.131714,188.783463 407.304077,161.334305 479.052856,153.752197 
	C514.949280,149.958786 550.581909,151.684235 585.782593,159.286469 
	C647.171936,172.544678 700.942017,200.722183 746.558594,243.970367 
	C757.871094,254.695557 768.163269,266.496979 779.113098,278.001923 
	C777.386169,279.521820 776.569031,280.319794 775.673340,281.016846 
	C768.578308,286.538452 761.433533,291.996735 754.371277,297.559784 
	C744.383484,305.427338 745.192200,317.965118 756.201782,324.318115 
	C759.193604,326.044495 762.572144,327.121857 765.816345,328.386261 
	C799.236755,341.411469 832.640076,354.481049 866.107666,367.384125 
	C877.032715,371.596161 885.466858,367.064850 888.858337,355.673553 
	C889.238892,353.799927 889.948120,351.926849 889.951416,350.052551 
	C890.016602,312.961334 890.014282,275.869934 889.958984,238.778687 
	C889.956116,236.854797 889.358765,234.931808 888.925720,232.134079 
z"/>
<path fill="#A8A8AA" opacity="1.000000" stroke="none" 
	d="
M267.740387,369.096344 
	C269.509125,363.048401 273.172699,358.632660 278.680237,355.479614 
	C343.492889,318.374603 408.269867,281.207214 473.752960,243.988922 
	C475.300476,243.283020 476.151215,242.644409 477.001984,242.005783 
	C477.001984,242.005783 477.000000,241.999390 477.286072,241.918472 
	C478.045959,241.524872 478.519775,241.212189 478.993622,240.899521 
	C478.993622,240.899521 478.973297,240.978561 479.303772,240.955688 
	C481.087402,239.949738 482.540527,238.966644 483.993683,237.983566 
	C483.993683,237.983566 483.996124,238.005371 484.274902,237.921356 
	C485.035675,237.518600 485.517670,237.199860 485.999664,236.881104 
	C485.999664,236.881104 485.974030,236.976288 486.298340,236.952820 
	C488.077301,235.941711 489.531982,234.954102 490.986633,233.966492 
	C490.986633,233.966492 490.988770,234.010895 491.265533,233.924194 
	C492.029144,233.510483 492.515991,233.183502 493.002869,232.856537 
	C493.002869,232.856537 492.972534,232.969452 493.289764,232.948624 
	C495.738983,231.572067 497.870941,230.216354 500.002899,228.860626 
	C500.002899,228.860626 499.973022,228.970871 500.271271,228.950974 
	C502.051056,227.934555 503.532593,226.938019 505.014130,225.941498 
	C505.014130,225.941483 505.208527,225.547333 505.329102,225.366608 
	C505.449707,225.185867 505.380493,225.206131 505.380493,225.206131 
	C505.633331,225.146805 505.886200,225.087479 506.784546,225.177643 
	C513.715820,224.326172 519.519104,225.368408 524.949036,228.897308 
	C527.092041,230.290054 529.706421,230.957489 532.106201,231.955200 
	C532.106201,231.955185 532.023865,231.979950 532.200928,232.161026 
	C532.912598,232.563431 533.447144,232.784760 533.981750,233.006073 
	C533.981750,233.006088 533.997131,232.996170 534.036255,233.264221 
	C534.701538,233.721893 535.327759,233.911530 535.953918,234.101166 
	C561.174622,248.602768 586.424500,263.053802 611.609558,277.617035 
	C656.671631,303.674072 701.735291,329.729279 746.661255,356.019348 
	C750.496704,358.263794 753.307068,362.260040 756.526001,365.973755 
	C756.796692,366.981689 757.134949,367.458344 757.473267,367.934998 
	C757.668945,368.476959 757.864624,369.018890 758.064697,369.885529 
	C758.069153,370.210205 757.948364,369.987976 757.699646,370.320618 
	C757.299866,372.462860 757.017090,374.272430 757.016602,376.082092 
	C756.994751,457.804413 756.991150,539.526733 757.036926,621.249084 
	C757.037964,623.170898 757.625671,625.092346 757.996887,626.906372 
	C758.054016,626.798706 758.275696,626.899963 758.275696,626.899963 
	C758.084473,627.472229 757.893250,628.044434 757.207031,629.068237 
	C756.485901,630.209351 756.259827,630.898804 756.033752,631.588318 
	C753.192627,634.462524 750.789062,638.049133 747.444397,640.103455 
	C700.481995,668.947083 653.372681,697.551270 606.338928,726.278809 
	C579.198853,742.855591 552.076660,759.462952 525.063477,776.244873 
	C517.275635,781.083130 510.130432,781.167480 502.229248,776.339783 
	C428.347687,731.197937 354.359711,686.230286 280.461853,641.115173 
	C276.971344,638.984192 274.040009,635.937195 270.504669,632.889526 
	C270.154419,632.292603 270.147766,632.122925 270.219177,631.817383 
	C270.308502,631.373718 270.125641,631.172913 269.828186,631.095947 
	C269.907654,631.112854 269.863861,631.269409 269.874634,630.821289 
	C269.591797,623.580200 269.048035,616.787354 269.042755,609.994141 
	C268.981934,531.749329 269.009827,453.504486 268.963776,375.259674 
	C268.962555,373.167145 268.395294,371.074982 268.030884,369.093842 
	C267.969727,369.205048 267.740387,369.096344 267.740387,369.096344 
M730.445496,394.982361 
	C730.263855,395.054077 730.082153,395.125793 729.327087,395.384247 
	C728.703491,395.883667 728.079834,396.383087 726.811157,397.011658 
	C686.324036,421.075226 645.807678,445.089905 605.360229,469.219971 
	C579.502319,484.646179 553.746155,500.243011 527.464661,515.886414 
	C527.464661,515.886414 526.981750,515.996155 526.265198,516.316467 
	C525.849548,517.665344 525.071167,519.014038 525.070251,520.363220 
	C525.018005,592.713318 525.019104,665.063416 525.120544,737.413452 
	C525.122681,738.941040 526.360229,740.466858 527.638123,741.797546 
	C528.292847,741.244568 528.947571,740.691589 530.248718,740.034729 
	C583.539062,707.515503 636.844055,675.020264 690.109253,642.459778 
	C703.155640,634.484741 716.071655,626.296448 729.522888,617.996582 
	C729.888611,617.640808 730.254395,617.285095 731.244507,616.370605 
	C731.492676,614.595398 731.956848,612.820251 731.957764,611.044922 
	C731.993835,540.948853 731.995422,470.852814 731.947205,400.756775 
	C731.945923,398.836365 731.350037,396.916321 730.445496,394.982361 
M498.198944,515.334961 
	C497.811951,515.253052 497.424927,515.171204 496.380432,514.845520 
	C494.702911,513.546204 493.140717,512.053162 491.330994,510.975891 
	C445.742340,483.837494 400.142181,456.718292 354.510559,429.652222 
	C335.926239,418.629028 317.263672,407.737732 298.199371,396.298553 
	C297.219543,395.882599 296.239716,395.466644 294.666656,395.634857 
	C294.453796,396.923920 294.055145,398.212952 294.054626,399.502075 
	C294.026367,470.358368 294.020630,541.214661 294.100677,612.070923 
	C294.102509,613.710510 295.109558,615.348938 295.979584,617.289734 
	C296.309204,617.571899 296.638794,617.854126 297.282196,618.726868 
	C299.338959,620.138794 301.335358,621.649475 303.461365,622.948120 
	C347.227051,649.680237 390.980957,676.431763 434.796722,703.081604 
	C455.269318,715.533569 475.867310,727.779419 496.840851,740.597595 
	C497.557007,741.063904 498.273163,741.530273 499.677002,741.616272 
	C500.115906,740.120178 500.937469,738.624451 500.938751,737.127991 
	C500.999847,664.993530 501.001312,592.858948 500.915222,520.724487 
	C500.913300,519.137756 499.820496,517.552368 498.823730,515.725525 
	C498.823730,515.725525 498.369415,515.577148 498.063049,515.651184 
	C498.063049,515.651184 498.127441,515.959656 498.198944,515.334961 
M462.987823,461.520020 
	C477.688599,470.336456 492.483551,479.001648 507.032654,488.061676 
	C511.388763,490.774323 514.638000,490.873474 519.166138,488.150085 
	C572.218201,456.242493 625.413452,424.572815 678.566833,392.833649 
	C690.924988,385.454315 703.267944,378.049591 715.885315,370.496460 
	C714.961548,369.840057 714.454163,369.414154 713.889404,369.087494 
	C648.781799,331.427124 583.651794,293.805542 518.603638,256.042816 
	C514.702942,253.778305 511.753723,254.167114 508.065460,256.294556 
	C453.867371,287.556946 399.608765,318.714478 345.355621,349.881470 
	C333.548706,356.664246 321.707001,363.386566 309.539246,370.331970 
	C360.808380,400.791046 411.589294,430.960052 462.987823,461.520020 
z"/>
<path fill="#FC202C" opacity="1.000000" stroke="none" 
	d="
M506.996185,84.982025 
	C513.681641,85.046265 520.367065,85.110497 527.911499,85.224670 
	C532.846619,85.487625 536.922791,85.700638 540.999023,85.913643 
	C542.382446,86.004639 543.765930,86.095634 545.916626,86.340378 
	C552.122314,86.966949 557.560730,87.439758 562.999084,87.912567 
	C563.440002,87.978569 563.880859,88.044571 565.019287,88.209274 
	C569.477661,88.848679 573.238464,89.389389 576.999268,89.930092 
	C577.431213,90.008240 577.863098,90.086388 578.926941,90.318634 
	C580.705627,90.624840 581.852478,90.776939 582.999268,90.929039 
	C583.430847,91.002167 583.862488,91.075302 584.939697,91.351212 
	C592.389648,92.961845 599.194031,94.369705 605.998413,95.777557 
	C698.305359,118.156113 774.023682,166.148544 832.153992,242.280609 
	C841.872925,234.505859 851.817810,226.774063 861.496765,218.722473 
	C867.195312,213.982101 873.113525,211.468475 880.179016,215.091400 
	C887.064819,218.622192 889.421936,224.700592 888.916870,233.035355 
	C888.658386,274.623932 888.408813,315.311218 888.159180,355.998505 
	C885.466858,367.064850 877.032715,371.596161 866.107666,367.384125 
	C832.640076,354.481049 799.236755,341.411469 765.816345,328.386261 
	C762.572144,327.121857 759.193604,326.044495 756.201782,324.318115 
	C745.192200,317.965118 744.383484,305.427338 754.371277,297.559784 
	C761.433533,291.996735 768.578308,286.538452 775.673340,281.016846 
	C776.569031,280.319794 777.386169,279.521820 779.113098,278.001923 
	C768.163269,266.496979 757.871094,254.695557 746.558594,243.970367 
	C700.942017,200.722183 647.171936,172.544678 585.782593,159.286469 
	C550.581909,151.684235 514.949280,149.958786 479.052856,153.752197 
	C407.304077,161.334305 344.131714,188.783463 289.302094,235.481384 
	C267.870728,253.734299 249.941483,275.170837 234.049438,298.357391 
	C226.205399,309.801941 214.774597,312.370056 202.776672,305.239502 
	C197.352829,302.015991 192.177032,298.340698 187.078812,294.610535 
	C174.955170,285.740234 172.526123,273.630768 180.667862,261.022217 
	C195.265060,238.416565 212.221161,217.694107 231.534348,198.936996 
	C287.552399,144.531876 354.137726,110.106010 430.338593,93.883362 
	C431.313232,93.675865 432.267181,93.371468 434.022858,93.026436 
	C439.558716,91.998138 444.302521,91.055702 449.046326,90.113258 
	C449.484131,90.102577 449.921967,90.091904 451.050598,90.049461 
	C453.167847,89.696152 454.594238,89.374619 456.020660,89.053078 
	C456.464111,89.058609 456.907593,89.064148 458.100586,89.035095 
	C463.243805,88.359734 467.637451,87.718956 472.031097,87.078178 
	C472.777252,87.072388 473.523438,87.066589 475.079315,87.027924 
	C486.258087,86.324043 496.627136,85.653038 506.996185,84.982025 
z"/>
<path fill="#00B069" opacity="1.000000" stroke="none" 
	d="
M104.035713,593.923767 
	C104.035713,593.923767 103.993340,593.430725 104.024536,592.785889 
	C103.381058,589.414429 102.706398,586.687927 102.031738,583.961365 
	C102.013885,583.792358 101.996033,583.623413 102.049789,582.827576 
	C101.756287,580.788330 101.391190,579.375854 101.026085,577.963440 
	C101.009315,577.793518 100.992546,577.623596 101.045746,576.824707 
	C100.756256,574.776733 100.396782,573.357605 100.037308,571.938538 
	C100.037308,571.938538 99.995766,571.445923 100.072525,570.777222 
	C99.442528,565.722351 98.735771,561.336121 98.029007,556.949951 
	C98.015877,556.509033 98.002747,556.068176 98.092529,554.886475 
	C98.097176,552.454346 97.998901,550.762878 97.900635,549.071472 
	C97.630966,548.227844 97.361298,547.384216 96.997421,545.763428 
	C96.622971,539.650818 96.342728,534.315308 96.062477,528.979797 
	C96.029060,526.590637 95.995636,524.201538 95.950455,520.905151 
	C96.696098,503.845947 97.453506,487.693909 98.210915,471.541870 
	C99.764404,464.285706 101.317886,457.029510 102.932144,449.489471 
	C91.009377,446.100708 79.321693,442.889404 67.704277,439.441376 
	C58.568550,436.729950 53.808105,430.768677 55.138611,422.313354 
	C55.753811,418.403809 57.958801,413.708771 60.987911,411.375153 
	C90.793488,388.412903 120.838432,365.757538 151.012100,343.279053 
	C160.766479,336.012329 172.615982,340.122589 177.246902,352.037628 
	C184.962036,371.888153 192.469696,391.819763 199.997147,411.742737 
	C205.347961,425.904755 210.749496,440.051178 215.823730,454.312988 
	C219.607956,464.948975 214.430786,474.582245 203.917892,476.390839 
	C200.827728,476.922455 197.300018,476.151123 194.209122,475.205048 
	C185.001450,472.386566 175.911163,469.184601 166.014221,465.878265 
	C165.032227,471.889435 164.104919,477.565918 163.141785,484.078796 
	C162.787415,489.260162 162.468857,493.605072 162.150299,497.950012 
	C162.105606,498.422760 162.060913,498.895538 162.018402,500.159058 
	C163.043884,518.944641 164.067184,536.939392 165.090485,554.934143 
	C165.081894,555.412415 165.073318,555.890625 165.153214,557.098267 
	C165.568329,559.844727 165.894974,561.861816 166.221619,563.878967 
	C166.222366,564.084229 166.223129,564.289429 166.328781,565.168640 
	C166.988037,568.874573 167.542389,571.906616 168.096756,574.938599 
	C168.132034,575.478760 168.167328,576.018982 168.382721,577.171753 
	C168.739624,578.502991 168.916458,579.221680 169.093277,579.940308 
	C175.147522,612.984131 186.329269,644.219421 202.930222,673.396545 
	C255.368027,765.558838 333.200256,823.869202 436.536652,847.999207 
	C440.424500,848.907043 444.367706,849.681030 448.145630,850.937012 
	C458.718658,854.452148 464.315430,863.984558 461.950226,874.857849 
	C460.466919,881.676880 458.555176,888.430298 456.384308,895.065552 
	C453.410706,904.154358 445.446716,910.672607 435.989960,909.660156 
	C423.327179,908.304504 410.526733,906.263000 398.352783,902.619873 
	C284.990692,868.695984 198.646042,800.878906 141.796295,696.533020 
	C127.710213,670.678467 117.961723,643.063232 109.515030,614.194092 
	C108.162056,609.032166 107.040627,604.550659 105.919189,600.069214 
	C105.871872,599.524658 105.824554,598.980042 105.564621,597.830444 
	C104.913239,596.124817 104.474472,595.024292 104.035713,593.923767 
z"/>
<path fill="#009AF6" opacity="1.000000" stroke="none" 
	d="
M929.716248,532.505737 
	C929.470764,535.078247 929.225281,537.650818 928.958130,541.021545 
	C928.652771,543.963074 928.272278,546.098694 928.099976,548.250916 
	C925.797607,577.019653 920.022522,605.074890 911.292114,632.579163 
	C903.883240,655.920227 893.974060,678.173401 882.955505,699.978027 
	C882.955505,699.978027 883.009155,699.981812 882.780396,700.171265 
	C882.326294,700.904724 882.101013,701.448853 881.875793,701.992920 
	C881.875793,701.992920 881.971008,701.971191 881.716614,702.118347 
	C881.246216,702.841064 881.030212,703.416565 880.814209,703.992126 
	C880.814209,703.992126 880.940613,703.955444 880.657043,704.098633 
	C879.547363,705.810364 878.721252,707.378967 877.895142,708.947632 
	C877.895081,708.947571 877.967346,708.956909 877.705078,709.141174 
	C876.598022,710.869141 875.753235,712.412842 874.908447,713.956543 
	C874.908386,713.956543 874.977905,713.964111 874.729248,714.127136 
	C874.246887,714.855591 874.013123,715.421021 873.779419,715.986511 
	C873.779419,715.986511 873.921082,715.940430 873.622131,716.076660 
	C871.161011,719.781250 868.998779,723.349731 866.836548,726.918152 
	C866.836548,726.918152 866.915100,726.918884 866.655151,727.065002 
	C865.894409,728.124023 865.393677,729.036865 864.892944,729.949707 
	C864.892944,729.949707 864.964905,729.953674 864.709656,730.115601 
	C863.942444,731.171570 863.430420,732.065674 862.918396,732.959717 
	C862.918396,732.959717 862.988281,732.971252 862.720337,733.136719 
	C861.795898,734.362183 861.139343,735.422180 860.482788,736.482178 
	C860.482788,736.482178 860.446838,736.561157 860.241821,736.760010 
	C859.649414,737.619385 859.262146,738.279907 858.874878,738.940369 
	C858.874817,738.940369 858.947815,738.944641 858.681152,739.086670 
	C857.878723,740.117615 857.342957,741.006531 856.807129,741.895447 
	C856.807129,741.895447 856.895813,741.904541 856.629272,742.032349 
	C856.131714,742.737366 855.900757,743.314575 855.669800,743.891724 
	C855.669861,743.891785 855.785217,743.740662 855.449097,743.873535 
	C854.595520,744.905945 854.078003,745.805603 853.560547,746.705261 
	C853.560547,746.705261 853.612854,746.638916 853.321167,746.787109 
	C852.594971,747.596619 852.160339,748.257996 851.725769,748.919373 
	C851.398743,748.962402 851.171082,749.135864 850.746338,749.840576 
	C849.903381,751.127197 849.356812,752.013000 848.810181,752.898865 
	C848.810242,752.898865 848.899048,752.905640 848.619812,753.031128 
	C847.492981,754.401489 846.645386,755.646484 845.797791,756.891418 
	C845.797791,756.891418 845.892517,756.902466 845.624023,757.018738 
	C845.116394,757.696411 844.877197,758.257874 844.638000,758.819275 
	C844.638000,758.819275 844.769592,758.805542 844.435730,758.818054 
	C843.321045,759.863464 842.540161,760.896362 841.759277,761.929199 
	C841.423035,761.973083 841.185791,762.149902 840.758057,762.865967 
	C840.213135,763.823242 839.957764,764.374268 839.702332,764.925232 
	C839.702332,764.925232 839.833618,764.770691 839.490173,764.885376 
	C838.094238,766.331055 837.041748,767.661987 835.989258,768.992920 
	C835.989197,768.992920 836.000000,769.000000 835.744080,769.185425 
	C834.602173,770.549927 833.716187,771.729004 832.830139,772.908081 
	C832.830139,772.908081 832.911438,772.913574 832.634094,773.037842 
	C831.781067,774.044556 831.205383,774.927002 830.629639,775.809387 
	C830.629639,775.809387 830.815735,775.877747 830.528442,775.841431 
	C830.064331,776.170837 829.887512,776.536560 829.710693,776.902283 
	C829.710754,776.902283 829.891296,776.934082 829.591064,776.895935 
	C829.111328,777.220825 828.931824,777.583862 828.752319,777.946960 
	C828.752319,777.946960 828.938721,777.960938 828.644531,777.940186 
	C828.161194,778.269897 827.972046,778.620483 827.782898,778.971069 
	C827.782898,778.971069 827.954895,778.999573 827.685913,778.998169 
	C827.222473,779.328125 827.028076,779.659607 826.833679,779.991089 
	C826.833679,779.991089 826.986938,780.001709 826.722656,780.025452 
	C826.256653,780.364258 826.054932,780.679260 825.853271,780.994263 
	C825.853271,780.994324 825.992859,780.999390 825.739868,781.033997 
	C825.298462,781.373230 825.109985,781.677917 824.921509,781.982605 
	C824.921509,781.982605 824.987366,781.985474 824.712952,782.113647 
	C824.174011,782.775696 823.909485,783.309570 823.645020,783.843506 
	C823.645020,783.843506 823.803955,783.817200 823.457886,783.833557 
	C821.312988,785.872070 819.514099,787.894226 817.715332,789.916382 
	C817.180786,790.379028 816.646179,790.841614 815.789429,791.696106 
	C815.272766,792.393982 815.078247,792.699951 814.883667,793.005859 
	C814.883667,793.005859 815.005066,793.003052 814.747375,793.044861 
	C814.277466,793.379150 814.065247,793.671631 813.853088,793.964111 
	C812.980469,794.786011 812.107788,795.607910 810.856384,796.841187 
	C809.975891,797.831726 809.474182,798.410889 808.972473,798.990051 
	C808.062439,799.798950 807.152405,800.607788 805.895020,801.805908 
	C805.268066,802.397461 805.078857,802.663940 804.980286,802.994690 
	C804.980286,802.994690 805.002441,803.002441 804.774414,803.098755 
	C804.267090,803.397583 804.077576,803.663879 803.977844,803.994080 
	C803.977844,803.994080 804.002441,804.002441 803.771606,804.097656 
	C803.343872,804.458374 803.146973,804.723877 802.949951,804.989258 
	C800.702271,807.038147 798.454529,809.087036 795.769958,811.587402 
	C793.756592,813.570251 792.180115,815.101562 790.603638,816.632874 
	C790.603638,816.632874 790.718994,816.825134 790.492493,816.791992 
	C789.809204,817.187256 789.352417,817.615662 788.895569,818.044067 
	C764.875732,838.499268 739.444031,856.940979 711.308533,871.362488 
	C700.225952,877.043152 688.726685,881.910950 676.790710,887.479919 
	C665.885803,891.468811 655.607361,895.126770 645.104736,898.864502 
	C647.492737,908.187805 649.708191,917.692383 652.405273,927.058289 
	C654.120972,933.016174 653.684753,938.508850 650.809631,943.902161 
	C650.809631,943.902161 650.905457,943.911255 650.648804,944.011230 
	C649.919861,944.737122 649.447571,945.362976 648.975220,945.988892 
	C648.975281,945.988892 648.999268,946.003357 648.674316,946.144165 
	C643.178284,950.930603 637.211609,951.074768 631.071045,948.995667 
	C618.029602,944.579956 605.051636,939.976807 592.047668,935.450439 
	C570.852173,927.597046 549.604431,919.879700 528.502441,911.782532 
	C523.955078,910.037659 519.273315,907.611511 515.811584,904.291626 
	C509.330963,898.076599 509.266846,889.067261 515.150024,882.306824 
	C541.936584,851.526306 568.899780,820.899475 595.656860,790.093506 
	C599.466492,785.707397 603.713684,786.003784 608.300659,787.548828 
	C614.911743,789.775574 618.409180,794.802002 619.886414,801.417725 
	C622.446899,812.884521 625.005371,824.351746 627.636780,836.141785 
	C649.394348,829.500366 669.920593,820.938354 689.321045,809.947998 
	C767.991821,765.381104 821.982666,700.181091 851.120178,614.611389 
	C860.451355,587.208008 864.817688,558.779114 866.029541,528.956543 
	C865.674072,511.430084 865.653992,494.800201 864.807251,478.212555 
	C864.442200,471.062286 862.365723,463.999451 861.066772,456.896881 
	C861.066772,456.896881 861.038086,456.983215 861.050293,456.649933 
	C860.827454,454.216492 860.778870,452.075073 860.325012,450.023315 
	C858.388367,441.267731 858.133789,432.752747 863.344543,424.872162 
	C875.570068,412.245361 890.935303,412.875336 906.317444,415.474762 
	C910.262085,416.141388 913.629883,420.221497 917.662598,423.185364 
	C918.685059,424.467896 919.307556,425.298462 919.930054,426.129028 
	C919.930054,426.129028 919.949097,426.058289 920.001587,426.421448 
	C921.293823,430.723022 923.163879,434.583344 923.663208,438.613464 
	C925.742737,455.397217 927.409546,472.232025 929.193420,489.452576 
	C929.260193,491.197845 929.361267,492.538605 929.416626,494.284180 
	C929.431396,495.498322 929.491882,496.307678 929.443726,497.527191 
	C929.418030,499.909332 929.500916,501.881378 929.517212,504.285950 
	C929.539124,513.980896 929.627686,523.243347 929.716248,532.505737 
z"/>
<path fill="#000817" opacity="1.000000" stroke="none" 
	d="
M268.164368,628.886963 
	C267.454987,626.242249 266.129272,623.598328 266.125702,620.952637 
	C266.014557,538.660889 266.026825,456.368988 266.073578,374.077118 
	C266.074463,372.523590 266.718323,370.970428 267.401306,369.256714 
	C267.740387,369.096344 267.969727,369.205048 267.923767,369.553070 
	C267.850830,370.400055 267.800201,370.898987 267.800171,371.397949 
	C267.796661,455.041199 267.793518,538.684448 267.815247,622.327698 
	C267.815826,624.486755 268.091064,626.645752 268.218689,628.824341 
	C268.199158,628.843872 268.164368,628.886963 268.164368,628.886963 
z"/>
<path fill="#000817" opacity="1.000000" stroke="none" 
	d="
M758.183594,370.156494 
	C758.864197,371.850647 759.923889,373.598114 759.925537,375.346527 
	C760.003479,457.535217 759.995300,539.723999 759.942871,621.912720 
	C759.941833,623.464661 759.292542,625.016235 758.610718,626.733948 
	C758.275696,626.899963 758.054016,626.798706 758.113525,626.450806 
	C758.277954,623.778564 758.474121,621.454102 758.474792,619.129700 
	C758.498108,539.558899 758.510071,459.988129 758.486511,380.417358 
	C758.485474,376.940826 758.135681,373.464447 757.948364,369.987976 
	C757.948364,369.987976 758.069153,370.210205 758.183594,370.156494 
z"/>
<path fill="#25171D" opacity="1.000000" stroke="none" 
	d="
M883.292725,699.905334 
	C893.974060,678.173401 903.883240,655.920227 911.292114,632.579163 
	C920.022522,605.074890 925.797607,577.019653 928.099976,548.250916 
	C928.272278,546.098694 928.652771,543.963074 929.042114,541.430603 
	C929.734375,542.105591 930.912109,543.226624 930.815979,544.225037 
	C929.884521,553.902588 929.082825,563.614502 927.552246,573.206177 
	C926.195618,581.708252 924.100281,590.103760 922.080322,598.485901 
	C919.248657,610.236572 916.856018,622.154968 913.043884,633.591064 
	C908.635986,646.814453 903.073914,659.669250 897.657898,672.534607 
	C894.375854,680.330994 890.468750,687.867493 886.729614,695.465271 
	C885.951355,697.046570 884.676086,698.383240 883.292725,699.905334 
z"/>
<path fill="#202835" opacity="1.000000" stroke="none" 
	d="
M888.508789,355.836029 
	C888.408813,315.311218 888.658386,274.623932 888.973022,233.472519 
	C889.358765,234.931808 889.956116,236.854797 889.958984,238.778687 
	C890.014282,275.869934 890.016602,312.961334 889.951416,350.052551 
	C889.948120,351.926849 889.238892,353.799927 888.508789,355.836029 
z"/>
<path fill="#25171D" opacity="1.000000" stroke="none" 
	d="
M929.552368,497.117065 
	C929.491882,496.307678 929.431396,495.498322 929.570068,494.007172 
	C929.588684,491.899658 929.408264,490.473877 929.227783,489.048126 
	C927.409546,472.232025 925.742737,455.397217 923.663208,438.613464 
	C923.163879,434.583344 921.293823,430.723022 919.965088,426.422791 
	C921.772705,429.547699 924.664124,432.845367 925.369873,436.558472 
	C927.114136,445.735809 928.415833,455.075165 928.888367,464.400421 
	C929.926392,484.883453 930.367798,505.397308 930.967590,525.901062 
	C931.024292,527.840515 930.479065,529.797546 929.964783,532.126099 
	C929.627686,523.243347 929.539124,513.980896 929.652832,503.973969 
	C929.754150,501.191986 929.653259,499.154510 929.552368,497.117065 
z"/>
<path fill="#25171D" opacity="1.000000" stroke="none" 
	d="
M651.169434,943.851013 
	C653.684753,938.508850 654.120972,933.016174 652.405273,927.058289 
	C649.708191,917.692383 647.492737,908.187805 645.104736,898.864502 
	C655.607361,895.126770 665.885803,891.468811 676.536133,887.711792 
	C675.014343,889.035706 673.320557,891.018860 671.190308,891.779114 
	C664.164246,894.286682 656.998230,896.411438 649.847839,898.555969 
	C647.222961,899.343201 647.156738,900.802917 647.778564,903.099915 
	C650.121582,911.755676 652.222778,920.476746 654.549622,929.137024 
	C656.014404,934.588623 655.686523,939.560059 651.169434,943.851013 
z"/>
<path fill="#25171D" opacity="1.000000" stroke="none" 
	d="
M592.175049,935.748962 
	C605.051636,939.976807 618.029602,944.579956 631.071045,948.995667 
	C637.211609,951.074768 643.178284,950.930603 648.669434,946.131592 
	C648.344238,947.209595 647.939453,949.263550 647.013367,949.534363 
	C642.307251,950.909851 638.041748,953.678345 632.434570,951.427979 
	C619.859558,946.381226 606.961792,942.139709 594.213623,937.520325 
	C593.493286,937.259338 592.935730,936.548767 592.175049,935.748962 
z"/>
<path fill="#25171D" opacity="1.000000" stroke="none" 
	d="
M861.039673,457.344482 
	C862.365723,463.999451 864.442200,471.062286 864.807251,478.212555 
	C865.653992,494.800201 865.674072,511.430084 865.969299,528.505981 
	C865.596619,527.714111 865.044739,526.465942 865.008118,525.202881 
	C864.618958,511.775665 864.591431,498.331360 863.884094,484.922394 
	C863.405823,475.853699 862.002319,466.833771 861.039673,457.344482 
z"/>
<path fill="#25171D" opacity="1.000000" stroke="none" 
	d="
M165.320068,554.615967 
	C164.067184,536.939392 163.043884,518.944641 162.069626,500.512634 
	C162.414352,501.835022 162.859741,503.584290 162.982101,505.355865 
	C163.984222,519.864685 164.949966,534.376282 165.855804,548.891357 
	C165.967438,550.680115 165.661896,552.494995 165.320068,554.615967 
z"/>
<path fill="#C4C2C0" opacity="1.000000" stroke="none" 
	d="
M531.896667,231.702972 
	C529.706421,230.957489 527.092041,230.290054 524.949036,228.897308 
	C519.519104,225.368408 513.715820,224.326172 507.163513,225.087204 
	C512.251038,222.255829 517.323975,223.011383 522.272583,226.024567 
	C525.365356,227.907776 528.545959,229.646942 531.896667,231.702972 
z"/>
<path fill="#25171D" opacity="1.000000" stroke="none" 
	d="
M97.979919,471.903198 
	C97.453506,487.693909 96.696098,503.845947 95.897705,520.459473 
	C95.687820,520.637695 95.381081,520.359802 95.369743,520.070435 
	C94.742622,504.065277 94.254997,488.064880 97.979919,471.903198 
z"/>
<path fill="#202835" opacity="1.000000" stroke="none" 
	d="
M506.658051,84.743973 
	C496.627136,85.653038 486.258087,86.324043 475.445099,86.949493 
	C478.668152,86.016579 482.305542,84.558075 486.008575,84.366234 
	C492.758484,84.016541 499.547333,84.417900 506.658051,84.743973 
z"/>
<path fill="#25171D" opacity="1.000000" stroke="none" 
	d="
M862.976196,424.963837 
	C858.133789,432.752747 858.388367,441.267731 860.325012,450.023315 
	C860.778870,452.075073 860.827454,454.216492 861.093872,456.662842 
	C857.351257,448.287750 856.913818,439.255402 859.075256,430.135529 
	C859.517883,428.268036 861.393066,426.740021 862.976196,424.963837 
z"/>
<path fill="#202835" opacity="1.000000" stroke="none" 
	d="
M605.868286,95.457520 
	C599.194031,94.369705 592.389648,92.961845 585.268738,91.338913 
	C587.105896,91.079674 589.358521,90.607239 591.393555,91.076950 
	C596.229858,92.193199 600.963257,93.755440 605.868286,95.457520 
z"/>
<path fill="#202835" opacity="1.000000" stroke="none" 
	d="
M562.852417,87.564117 
	C557.560730,87.439758 552.122314,86.966949 546.329224,86.281845 
	C551.551575,86.451599 557.128662,86.833633 562.852417,87.564117 
z"/>
<path fill="#202835" opacity="1.000000" stroke="none" 
	d="
M448.752747,89.863228 
	C444.302521,91.055702 439.558716,91.998138 434.408081,92.918480 
	C438.820557,91.801987 443.639862,90.707588 448.752747,89.863228 
z"/>
<path fill="#202835" opacity="1.000000" stroke="none" 
	d="
M540.846191,85.559341 
	C536.922791,85.700638 532.846619,85.487625 528.375488,85.164284 
	C532.218201,85.104309 536.455750,85.154678 540.846191,85.559341 
z"/>
<path fill="#202835" opacity="1.000000" stroke="none" 
	d="
M471.721252,86.830170 
	C467.637451,87.718956 463.243805,88.359734 458.425598,88.958786 
	C462.471130,88.138756 466.941254,87.360458 471.721252,86.830170 
z"/>
<path fill="#25171D" opacity="1.000000" stroke="none" 
	d="
M162.498718,497.803223 
	C162.468857,493.605072 162.787415,489.260162 163.176575,484.491302 
	C163.113831,488.597046 162.980484,493.126740 162.498718,497.803223 
z"/>
<path fill="#25171D" opacity="1.000000" stroke="none" 
	d="
M867.182861,726.872314 
	C868.998779,723.349731 871.161011,719.781250 873.595703,716.006958 
	C871.755188,719.476257 869.642151,723.151367 867.182861,726.872314 
z"/>
<path fill="#202835" opacity="1.000000" stroke="none" 
	d="
M576.862488,89.587288 
	C573.238464,89.389389 569.477661,88.848679 565.352539,88.170425 
	C568.900757,88.436752 572.813232,88.840614 576.862488,89.587288 
z"/>
<path fill="#25171D" opacity="1.000000" stroke="none" 
	d="
M105.697784,600.349365 
	C107.040627,604.550659 108.162056,609.032166 109.251213,613.972168 
	C107.971413,609.830383 106.723892,605.229919 105.697784,600.349365 
z"/>
<path fill="#25171D" opacity="1.000000" stroke="none" 
	d="
M95.830704,529.266968 
	C96.342728,534.315308 96.622971,539.650818 96.861542,545.445251 
	C96.412880,540.454163 96.005898,535.004089 95.830704,529.266968 
z"/>
<path fill="#25171D" opacity="1.000000" stroke="none" 
	d="
M98.023148,557.406067 
	C98.735771,561.336121 99.442528,565.722351 100.050491,570.531067 
	C99.306885,566.589783 98.662086,562.226013 98.023148,557.406067 
z"/>
<path fill="#25171D" opacity="1.000000" stroke="none" 
	d="
M168.320343,574.641479 
	C167.542389,571.906616 166.988037,568.874573 166.413910,565.464478 
	C167.110733,568.172302 167.827332,571.258301 168.320343,574.641479 
z"/>
<path fill="#C4C2C0" opacity="1.000000" stroke="none" 
	d="
M499.730713,228.915192 
	C497.870941,230.216354 495.738983,231.572067 493.233704,232.932053 
	C495.059784,231.614120 497.259125,230.291931 499.730713,228.915192 
z"/>
<path fill="#25171D" opacity="1.000000" stroke="none" 
	d="
M818.074097,789.895569 
	C819.514099,787.894226 821.312988,785.872070 823.435181,783.756226 
	C821.983276,785.733276 820.208069,787.804016 818.074097,789.895569 
z"/>
<path fill="#25171D" opacity="1.000000" stroke="none" 
	d="
M790.976501,816.687012 
	C792.180115,815.101562 793.756592,813.570251 795.625610,811.875549 
	C794.395203,813.388489 792.872314,815.064819 790.976501,816.687012 
z"/>
<path fill="#C4C2C0" opacity="1.000000" stroke="none" 
	d="
M504.730743,226.009583 
	C503.532593,226.938019 502.051056,227.934555 500.216553,228.934662 
	C501.391479,227.984726 502.919434,227.031204 504.730743,226.009583 
z"/>
<path fill="#C4C2C0" opacity="1.000000" stroke="none" 
	d="
M483.665222,238.068558 
	C482.540527,238.966644 481.087402,239.949738 479.264557,240.944397 
	C480.375488,240.021820 481.856140,239.087692 483.665222,238.068558 
z"/>
<path fill="#25171D" opacity="1.000000" stroke="none" 
	d="
M102.024323,584.376587 
	C102.706398,586.687927 103.381058,589.414429 103.987534,592.541199 
	C103.285202,590.224854 102.651054,587.508301 102.024323,584.376587 
z"/>
<path fill="#202835" opacity="1.000000" stroke="none" 
	d="
M455.755432,88.825104 
	C454.594238,89.374619 453.167847,89.696152 451.371094,89.973114 
	C452.497284,89.484734 453.993744,89.040932 455.755432,88.825104 
z"/>
<path fill="#25171D" opacity="1.000000" stroke="none" 
	d="
M166.413391,563.576660 
	C165.894974,561.861816 165.568329,559.844727 165.237930,557.447876 
	C165.691162,559.136841 166.148148,561.205566 166.413391,563.576660 
z"/>
<path fill="#C4C2C0" opacity="1.000000" stroke="none" 
	d="
M490.659729,234.053116 
	C489.531982,234.954102 488.077301,235.941711 486.251099,236.938782 
	C487.363983,236.012070 488.848419,235.075912 490.659729,234.053116 
z"/>
<path fill="#25171D" opacity="1.000000" stroke="none" 
	d="
M836.351440,768.939209 
	C837.041748,767.661987 838.094238,766.331055 839.409607,764.823792 
	C838.686218,766.060120 837.699951,767.472778 836.351440,768.939209 
z"/>
<path fill="#25171D" opacity="1.000000" stroke="none" 
	d="
M878.246948,708.885193 
	C878.721252,707.378967 879.547363,705.810364 880.636108,704.036194 
	C880.132141,705.494690 879.365479,707.158752 878.246948,708.885193 
z"/>
<path fill="#202835" opacity="1.000000" stroke="none" 
	d="
M582.895142,90.617355 
	C581.852478,90.776939 580.705627,90.624840 579.256226,90.296791 
	C580.232727,90.182449 581.511841,90.244064 582.895142,90.617355 
z"/>
<path fill="#25171D" opacity="1.000000" stroke="none" 
	d="
M875.257874,713.891602 
	C875.753235,712.412842 876.598022,710.869141 877.692017,709.107178 
	C877.163269,710.534851 876.385254,712.180786 875.257874,713.891602 
z"/>
<path fill="#25171D" opacity="1.000000" stroke="none" 
	d="
M833.190308,772.881653 
	C833.716187,771.729004 834.602173,770.549927 835.740356,769.179260 
	C835.178467,770.276855 834.364441,771.566040 833.190308,772.881653 
z"/>
<path fill="#25171D" opacity="1.000000" stroke="none" 
	d="
M860.862061,736.537415 
	C861.139343,735.422180 861.795898,734.362183 862.702148,733.106323 
	C862.381653,734.137939 861.811401,735.365295 860.862061,736.537415 
z"/>
<path fill="#25171D" opacity="1.000000" stroke="none" 
	d="
M846.148865,756.853760 
	C846.645386,755.646484 847.492981,754.401489 848.618164,752.986572 
	C848.097107,754.149780 847.298523,755.482910 846.148865,756.853760 
z"/>
<path fill="#25171D" opacity="1.000000" stroke="none" 
	d="
M842.100708,761.885986 
	C842.540161,760.896362 843.321045,759.863464 844.417969,758.754395 
	C843.970032,759.733093 843.206055,760.787903 842.100708,761.885986 
z"/>
<path fill="#C4C2C0" opacity="1.000000" stroke="none" 
	d="
M476.690063,242.085144 
	C476.151215,242.644409 475.300476,243.283020 474.089722,243.929199 
	C474.612579,243.346008 475.495361,242.755249 476.690063,242.085144 
z"/>
<path fill="#25171D" opacity="1.000000" stroke="none" 
	d="
M97.685013,549.349243 
	C97.998901,550.762878 98.097176,552.454346 98.084106,554.555786 
	C97.804970,553.186218 97.637184,551.406616 97.685013,549.349243 
z"/>
<path fill="#25171D" opacity="1.000000" stroke="none" 
	d="
M853.913940,746.639160 
	C854.078003,745.805603 854.595520,744.905945 855.369873,743.820923 
	C855.173645,744.614685 854.720520,745.593811 853.913940,746.639160 
z"/>
<path fill="#25171D" opacity="1.000000" stroke="none" 
	d="
M849.161133,752.849243 
	C849.356812,752.013000 849.903381,751.127197 850.706665,750.060303 
	C850.479614,750.852661 849.995911,751.826172 849.161133,752.849243 
z"/>
<path fill="#25171D" opacity="1.000000" stroke="none" 
	d="
M857.157776,741.847778 
	C857.342957,741.006531 857.878723,740.117615 858.672729,739.051086 
	C858.456848,739.848999 857.982605,740.824524 857.157776,741.847778 
z"/>
<path fill="#25171D" opacity="1.000000" stroke="none" 
	d="
M863.257324,732.887939 
	C863.430420,732.065674 863.942444,731.171570 864.697693,730.081543 
	C864.492798,730.862549 864.044556,731.839417 863.257324,732.887939 
z"/>
<path fill="#25171D" opacity="1.000000" stroke="none" 
	d="
M865.237000,729.880981 
	C865.393677,729.036865 865.894409,728.124023 866.651123,727.025940 
	C866.465088,727.831299 866.023071,728.821777 865.237000,729.880981 
z"/>
<path fill="#25171D" opacity="1.000000" stroke="none" 
	d="
M101.020508,578.342346 
	C101.391190,579.375854 101.756287,580.788330 102.026688,582.573730 
	C101.626312,581.538208 101.320625,580.129761 101.020508,578.342346 
z"/>
<path fill="#25171D" opacity="1.000000" stroke="none" 
	d="
M100.027283,572.318787 
	C100.396782,573.357605 100.756256,574.776733 101.022606,576.569580 
	C100.625404,575.528625 100.321327,574.113831 100.027283,572.318787 
z"/>
<path fill="#25171D" opacity="1.000000" stroke="none" 
	d="
M919.928223,425.768829 
	C919.307556,425.298462 918.685059,424.467896 917.951050,423.344086 
	C918.535278,423.836761 919.230835,424.622681 919.928223,425.768829 
z"/>
<path fill="#25171D" opacity="1.000000" stroke="none" 
	d="
M852.071045,748.866821 
	C852.160339,748.257996 852.594971,747.596619 853.280396,746.776001 
	C853.159668,747.349243 852.788025,748.081726 852.071045,748.866821 
z"/>
<path fill="#25171D" opacity="1.000000" stroke="none" 
	d="
M859.208313,738.877014 
	C859.262146,738.279907 859.649414,737.619385 860.270752,736.792297 
	C860.183777,737.355042 859.862732,738.084351 859.208313,738.877014 
z"/>
<path fill="#25171D" opacity="1.000000" stroke="none" 
	d="
M830.964966,775.716309 
	C831.205383,774.927002 831.781067,774.044556 832.632202,772.997070 
	C832.371887,773.762451 831.835999,774.692810 830.964966,775.716309 
z"/>
<path fill="#C4C2C0" opacity="1.000000" stroke="none" 
	d="
M535.732422,233.921143 
	C535.327759,233.911530 534.701538,233.721893 534.035522,233.272217 
	C534.500793,233.255142 535.005920,233.498123 535.732422,233.921143 
z"/>
<path fill="#25171D" opacity="1.000000" stroke="none" 
	d="
M104.030106,594.310425 
	C104.474472,595.024292 104.913239,596.124817 105.432236,597.588867 
	C105.016479,596.867249 104.520493,595.782166 104.030106,594.310425 
z"/>
<path fill="#C4C2C0" opacity="1.000000" stroke="none" 
	d="
M492.801636,232.883728 
	C492.515991,233.183502 492.029144,233.510483 491.248108,233.910339 
	C491.502747,233.625778 492.051575,233.268356 492.801636,232.883728 
z"/>
<path fill="#25171D" opacity="1.000000" stroke="none" 
	d="
M809.276611,798.917847 
	C809.474182,798.410889 809.975891,797.831726 810.735596,797.119507 
	C810.522583,797.606140 810.051636,798.225891 809.276611,798.917847 
z"/>
<path fill="#C4C2C0" opacity="1.000000" stroke="none" 
	d="
M485.801208,236.907440 
	C485.517670,237.199860 485.035675,237.518600 484.265320,237.914551 
	C484.518890,237.639099 485.060822,237.286438 485.801208,236.907440 
z"/>
<path fill="#25171D" opacity="1.000000" stroke="none" 
	d="
M649.285889,945.900757 
	C649.447571,945.362976 649.919861,944.737122 650.648560,943.963135 
	C650.468811,944.480896 650.032654,945.146790 649.285889,945.900757 
z"/>
<path fill="#C4C2C0" opacity="1.000000" stroke="none" 
	d="
M478.799255,240.927887 
	C478.519775,241.212189 478.045959,241.524872 477.290222,241.920105 
	C477.540527,241.653870 478.072693,241.305069 478.799255,240.927887 
z"/>
<path fill="#C4C2C0" opacity="1.000000" stroke="none" 
	d="
M533.853027,232.861298 
	C533.447144,232.784760 532.912598,232.563431 532.189575,232.119553 
	C532.575562,232.170181 533.149963,232.443359 533.853027,232.861298 
z"/>
<path fill="#25171D" opacity="1.000000" stroke="none" 
	d="
M169.295135,579.706665 
	C168.916458,579.221680 168.739624,578.502991 168.498932,577.418579 
	C168.789032,577.859558 169.143021,578.666260 169.295135,579.706665 
z"/>
<path fill="#25171D" opacity="1.000000" stroke="none" 
	d="
M823.919067,783.698730 
	C823.909485,783.309570 824.174011,782.775696 824.700684,782.083008 
	C824.706299,782.467468 824.449707,783.010681 823.919067,783.698730 
z"/>
<path fill="#C4C2C0" opacity="1.000000" stroke="none" 
	d="
M757.370483,367.621765 
	C757.134949,367.458344 756.796692,366.981689 756.607178,366.300171 
	C756.926575,366.499756 757.097168,366.904175 757.370483,367.621765 
z"/>
<path fill="#000817" opacity="1.000000" stroke="none" 
	d="
M269.029724,630.988708 
	C268.759949,630.485779 268.490143,629.982910 268.192383,629.183472 
	C268.164368,628.886963 268.199158,628.843872 268.450714,629.013000 
	C268.832550,629.759338 268.962830,630.336609 269.076477,630.931885 
	C269.059845,630.949951 269.029724,630.988708 269.029724,630.988708 
z"/>
<path fill="#25171D" opacity="1.000000" stroke="none" 
	d="
M789.203064,817.965027 
	C789.352417,817.615662 789.809204,817.187256 790.586548,816.730957 
	C790.441528,817.097351 789.976013,817.491638 789.203064,817.965027 
z"/>
<path fill="#C4C2C0" opacity="1.000000" stroke="none" 
	d="
M756.318237,631.356812 
	C756.259827,630.898804 756.485901,630.209351 756.992920,629.281982 
	C757.050171,629.737793 756.826477,630.431580 756.318237,631.356812 
z"/>
<path fill="#000817" opacity="1.000000" stroke="none" 
	d="
M270.141083,631.953308 
	C270.147766,632.122925 270.154419,632.292603 270.241058,632.703979 
	C269.947113,632.489258 269.573181,632.032776 269.114502,631.282471 
	C269.029724,630.988708 269.059845,630.949951 269.276611,631.004639 
	C269.493378,631.059326 269.863861,631.269409 269.863861,631.269409 
	C269.863861,631.269409 269.907654,631.112854 269.878052,631.336487 
	C269.848480,631.560120 270.141083,631.953308 270.141083,631.953308 
z"/>
<path fill="#25171D" opacity="1.000000" stroke="none" 
	d="
M855.943665,743.722656 
	C855.900757,743.314575 856.131714,742.737366 856.628540,741.987793 
	C856.668762,742.394775 856.443176,742.974121 855.943665,743.722656 
z"/>
<path fill="#25171D" opacity="1.000000" stroke="none" 
	d="
M844.916260,758.665710 
	C844.877197,758.257874 845.116394,757.696411 845.624268,756.971008 
	C845.660156,757.375366 845.427368,757.943726 844.916260,758.665710 
z"/>
<path fill="#25171D" opacity="1.000000" stroke="none" 
	d="
M839.963501,764.753784 
	C839.957764,764.374268 840.213135,763.823242 840.721802,763.093506 
	C840.724854,763.470642 840.474792,764.026428 839.963501,764.753784 
z"/>
<path fill="#25171D" opacity="1.000000" stroke="none" 
	d="
M882.105103,701.798279 
	C882.101013,701.448853 882.326294,700.904724 882.762817,700.150757 
	C882.760803,700.495178 882.547668,701.049377 882.105103,701.798279 
z"/>
<path fill="#25171D" opacity="1.000000" stroke="none" 
	d="
M874.029663,715.797668 
	C874.013123,715.421021 874.246887,714.855591 874.718689,714.093811 
	C874.731140,714.467957 874.505554,715.038391 874.029663,715.797668 
z"/>
<path fill="#25171D" opacity="1.000000" stroke="none" 
	d="
M881.059692,703.797729 
	C881.030212,703.416565 881.246216,702.841064 881.704346,702.071045 
	C881.732727,702.452148 881.518982,703.027710 881.059692,703.797729 
z"/>
<path fill="#C4C2C0" opacity="1.000000" stroke="none" 
	d="
M505.287048,225.009979 
	C505.380493,225.206131 505.449707,225.185867 505.479492,225.206329 
	C505.608002,225.119568 505.706787,225.012344 505.805542,224.905090 
	C505.601562,224.874664 505.397614,224.844238 505.287048,225.009979 
z"/>
<path fill="#25171D" opacity="1.000000" stroke="none" 
	d="
M829.959351,776.757629 
	C829.887512,776.536560 830.064331,776.170837 830.555908,775.746216 
	C830.649719,775.995850 830.428833,776.304443 829.959351,776.757629 
z"/>
<path fill="#25171D" opacity="1.000000" stroke="none" 
	d="
M803.136719,804.834106 
	C803.146973,804.723877 803.343872,804.458374 803.767456,804.085449 
	C803.789978,804.230164 803.566406,804.463806 803.136719,804.834106 
z"/>
<path fill="#25171D" opacity="1.000000" stroke="none" 
	d="
M804.159729,803.837830 
	C804.077576,803.663879 804.267090,803.397583 804.770508,803.087708 
	C804.794556,803.230408 804.576904,803.464172 804.159729,803.837830 
z"/>
<path fill="#25171D" opacity="1.000000" stroke="none" 
	d="
M805.161743,802.837952 
	C805.078857,802.663940 805.268066,802.397461 805.771851,802.087524 
	C805.795227,802.229309 805.577576,802.463074 805.161743,802.837952 
z"/>
<path fill="#25171D" opacity="1.000000" stroke="none" 
	d="
M814.070923,793.813538 
	C814.065247,793.671631 814.277466,793.379150 814.746216,792.984131 
	C814.764832,793.142090 814.526855,793.402588 814.070923,793.813538 
z"/>
<path fill="#25171D" opacity="1.000000" stroke="none" 
	d="
M815.090088,792.834534 
	C815.078247,792.699951 815.272766,792.393982 815.708191,791.953003 
	C815.731506,792.099792 815.513977,792.381531 815.090088,792.834534 
z"/>
<path fill="#25171D" opacity="1.000000" stroke="none" 
	d="
M825.130127,781.825745 
	C825.109985,781.677917 825.298462,781.373230 825.742065,780.964233 
	C825.777771,781.129517 825.558289,781.399170 825.130127,781.825745 
z"/>
<path fill="#25171D" opacity="1.000000" stroke="none" 
	d="
M826.074219,780.835266 
	C826.054932,780.679260 826.256653,780.364258 826.727722,779.948853 
	C826.763184,780.124390 826.529236,780.400330 826.074219,780.835266 
z"/>
<path fill="#25171D" opacity="1.000000" stroke="none" 
	d="
M827.058716,779.831726 
	C827.028076,779.659607 827.222473,779.328125 827.699097,778.911987 
	C827.748840,779.108948 827.516296,779.390625 827.058716,779.831726 
z"/>
<path fill="#25171D" opacity="1.000000" stroke="none" 
	d="
M828.019104,778.815063 
	C827.972046,778.620483 828.161194,778.269897 828.648926,777.846802 
	C828.716675,778.069092 828.486023,778.364075 828.019104,778.815063 
z"/>
<path fill="#25171D" opacity="1.000000" stroke="none" 
	d="
M828.989380,777.792480 
	C828.931824,777.583862 829.111328,777.220825 829.602661,776.805054 
	C829.685181,777.047485 829.455811,777.342712 828.989380,777.792480 
z"/>
<path fill="#202835" opacity="1.000000" stroke="none" 
	d="
M462.679016,461.324524 
	C411.589294,430.960052 360.808380,400.791046 309.539246,370.331970 
	C321.707001,363.386566 333.548706,356.664246 345.355621,349.881470 
	C399.608765,318.714478 453.867371,287.556946 508.065460,256.294556 
	C511.753723,254.167114 514.702942,253.778305 518.603638,256.042816 
	C583.651794,293.805542 648.781799,331.427124 713.889404,369.087494 
	C714.454163,369.414154 714.961548,369.840057 715.885315,370.496460 
	C703.267944,378.049591 690.924988,385.454315 678.566833,392.833649 
	C625.413452,424.572815 572.218201,456.242493 519.166138,488.150085 
	C514.638000,490.873474 511.388763,490.774323 507.032654,488.061676 
	C492.483551,479.001648 477.688599,470.336456 462.679016,461.324524 
z"/>
<path fill="#202835" opacity="1.000000" stroke="none" 
	d="
M496.408447,740.118652 
	C475.867310,727.779419 455.269318,715.533569 434.796722,703.081604 
	C390.980957,676.431763 347.227051,649.680237 303.461365,622.948120 
	C301.335358,621.649475 299.338959,620.138794 297.145142,617.954468 
	C297.003265,545.699768 296.985199,474.217529 297.062500,402.735352 
	C297.064636,400.751831 298.089020,398.769379 298.636688,396.786438 
	C317.263672,407.737732 335.926239,418.629028 354.510559,429.652222 
	C400.142181,456.718292 445.742340,483.837494 491.330994,510.975891 
	C493.140717,512.053162 494.702911,513.546204 496.847351,515.160400 
	C497.555450,515.686951 497.826508,515.848389 498.127441,515.959656 
	C498.127441,515.959656 498.063049,515.651184 498.103271,516.113403 
	C498.095795,519.069580 498.006653,521.563538 498.006470,524.057495 
	C498.000793,593.768494 498.019470,663.479553 497.938782,733.190491 
	C497.936096,735.500488 496.940948,737.809265 496.408447,740.118652 
z"/>
<path fill="#202835" opacity="1.000000" stroke="none" 
	d="
M729.047607,618.206177 
	C716.071655,626.296448 703.155640,634.484741 690.109253,642.459778 
	C636.844055,675.020264 583.539062,707.515503 529.578247,739.808228 
	C528.606201,737.158203 528.043213,734.735046 528.040955,732.311279 
	C527.974670,660.128662 527.963928,587.945984 527.944336,515.763306 
	C553.746155,500.243011 579.502319,484.646179 605.360229,469.219971 
	C645.807678,445.089905 686.324036,421.075226 727.474121,397.227264 
	C728.431885,399.707611 728.982666,401.972168 728.984375,404.237122 
	C729.038269,475.560150 729.038879,546.883179 729.047607,618.206177 
z"/>
<path fill="#C4C2C0" opacity="1.000000" stroke="none" 
	d="
M527.021423,741.993530 
	C526.360229,740.466858 525.122681,738.941040 525.120544,737.413452 
	C525.019104,665.063416 525.018005,592.713318 525.070251,520.363220 
	C525.071167,519.014038 525.849548,517.665344 526.562561,516.621826 
	C526.865784,559.181213 526.855103,601.435181 526.882690,643.689209 
	C526.904114,676.457336 526.973450,709.225403 527.021423,741.993530 
z"/>
<path fill="#C4C2C0" opacity="1.000000" stroke="none" 
	d="
M499.236542,515.966309 
	C499.820496,517.552368 500.913300,519.137756 500.915222,520.724487 
	C501.001312,592.858948 500.999847,664.993530 500.938751,737.127991 
	C500.937469,738.624451 500.115906,740.120178 499.475647,741.356934 
	C499.261749,666.053772 499.249146,591.010071 499.236542,515.966309 
z"/>
<path fill="#000817" opacity="1.000000" stroke="none" 
	d="
M298.418030,396.542480 
	C298.089020,398.769379 297.064636,400.751831 297.062500,402.735352 
	C296.985199,474.217529 297.003265,545.699768 296.988251,617.659180 
	C296.638794,617.854126 296.309204,617.571899 295.772705,616.668945 
	C295.514374,575.139832 295.466431,534.231445 295.410278,493.323120 
	C295.365326,460.565643 295.310394,427.808167 295.259888,395.050690 
	C296.239716,395.466644 297.219543,395.882599 298.418030,396.542480 
z"/>
<path fill="#000817" opacity="1.000000" stroke="none" 
	d="
M729.285278,618.101440 
	C729.038879,546.883179 729.038269,475.560150 728.984375,404.237122 
	C728.982666,401.972168 728.431885,399.707611 727.796631,397.162689 
	C728.079834,396.383087 728.703491,395.883667 729.709717,395.473083 
	C730.219299,395.827576 730.422546,396.007019 730.692444,396.562439 
	C730.662048,470.326202 730.641052,543.627747 730.620117,616.929321 
	C730.254395,617.285095 729.888611,617.640808 729.285278,618.101440 
z"/>
<path fill="#C4C2C0" opacity="1.000000" stroke="none" 
	d="
M757.699585,370.320618 
	C758.135681,373.464447 758.485474,376.940826 758.486511,380.417358 
	C758.510071,459.988129 758.498108,539.558899 758.474792,619.129700 
	C758.474121,621.454102 758.277954,623.778564 758.056396,626.558472 
	C757.625671,625.092346 757.037964,623.170898 757.036926,621.249084 
	C756.991150,539.526733 756.994751,457.804413 757.016602,376.082092 
	C757.017090,374.272430 757.299866,372.462860 757.699585,370.320618 
z"/>
<path fill="#CECCC9" opacity="1.000000" stroke="none" 
	d="
M269.874634,630.821289 
	C269.863861,631.269409 269.493378,631.059326 269.293243,630.986572 
	C268.962830,630.336609 268.832550,629.759338 268.470245,628.993408 
	C268.091064,626.645752 267.815826,624.486755 267.815247,622.327698 
	C267.793518,538.684448 267.796661,455.041199 267.800171,371.397949 
	C267.800201,370.898987 267.850830,370.400055 267.984924,369.441864 
	C268.395294,371.074982 268.962555,373.167145 268.963776,375.259674 
	C269.009827,453.504486 268.981934,531.749329 269.042755,609.994141 
	C269.048035,616.787354 269.591797,623.580200 269.874634,630.821289 
z"/>
<path fill="#000817" opacity="1.000000" stroke="none" 
	d="
M499.030151,515.845947 
	C499.249146,591.010071 499.261749,666.053772 499.131805,741.547119 
	C498.273163,741.530273 497.557007,741.063904 496.624634,740.358154 
	C496.940948,737.809265 497.936096,735.500488 497.938782,733.190491 
	C498.019470,663.479553 498.000793,593.768494 498.006470,524.057495 
	C498.006653,521.563538 498.095795,519.069580 498.256470,516.076416 
	C498.369415,515.577148 498.823730,515.725525 499.030151,515.845947 
z"/>
<path fill="#000817" opacity="1.000000" stroke="none" 
	d="
M527.329773,741.895508 
	C526.973450,709.225403 526.904114,676.457336 526.882690,643.689209 
	C526.855103,601.435181 526.865784,559.181213 526.920837,516.461670 
	C526.981750,515.996155 527.464661,515.886414 527.704468,515.824829 
	C527.963928,587.945984 527.974670,660.128662 528.040955,732.311279 
	C528.043213,734.735046 528.606201,737.158203 529.255005,739.860107 
	C528.947571,740.691589 528.292847,741.244568 527.329773,741.895508 
z"/>
<path fill="#CECCC9" opacity="1.000000" stroke="none" 
	d="
M294.963257,395.342773 
	C295.310394,427.808167 295.365326,460.565643 295.410278,493.323120 
	C295.466431,534.231445 295.514374,575.139832 295.606812,616.518066 
	C295.109558,615.348938 294.102509,613.710510 294.100677,612.070923 
	C294.020630,541.214661 294.026367,470.358368 294.054626,399.502075 
	C294.055145,398.212952 294.453796,396.923920 294.963257,395.342773 
z"/>
<path fill="#CECCC9" opacity="1.000000" stroke="none" 
	d="
M730.932312,616.649963 
	C730.641052,543.627747 730.662048,470.326202 730.844116,396.306763 
	C731.013977,395.391296 731.022644,395.193726 731.031372,394.996124 
	C731.350037,396.916321 731.945923,398.836365 731.947205,400.756775 
	C731.995422,470.852814 731.993835,540.948853 731.957764,611.044922 
	C731.956848,612.820251 731.492676,614.595398 730.932312,616.649963 
z"/>
<path fill="#000817" opacity="1.000000" stroke="none" 
	d="
M498.163208,515.647339 
	C497.826508,515.848389 497.555450,515.686951 497.176086,515.282349 
	C497.424927,515.171204 497.811951,515.253052 498.163208,515.647339 
z"/>
<path fill="#4B525B" opacity="1.000000" stroke="none" 
	d="
M730.738403,394.989258 
	C731.022644,395.193726 731.013977,395.391296 730.853577,395.844574 
	C730.422546,396.007019 730.219299,395.827576 729.996338,395.379730 
	C730.082153,395.125793 730.263855,395.054077 730.738403,394.989258 
z"/>
<path fill="#CECCC9" opacity="1.000000" stroke="none" 
	d="
M270.219177,631.817383 
	C270.141083,631.953308 269.848480,631.560120 269.798584,631.319580 
	C270.125641,631.172913 270.308502,631.373718 270.219177,631.817383 
z"/>
<path fill="#353D48" opacity="1.000000" stroke="none" 
	d="
M929.443726,497.527191 
	C929.653259,499.154510 929.754150,501.191986 929.719421,503.541412 
	C929.500916,501.881378 929.418030,499.909332 929.443726,497.527191 
z"/>
<path fill="#353D48" opacity="1.000000" stroke="none" 
	d="
M929.193420,489.452576 
	C929.408264,490.473877 929.588684,491.899658 929.615723,493.602417 
	C929.361267,492.538605 929.260193,491.197845 929.193420,489.452576 
z"/>
</svg>